<?xml version="1.0" encoding="UTF-8"?><svg id="uuid-8cd8d259-c97b-48f6-b652-53be191b0ccd" xmlns="http://www.w3.org/2000/svg" viewBox="0 0 80 30"><g id="uuid-08c7a17a-a42e-4fe0-a2d8-fd4a81dd164e"><rect id="uuid-a42d2e96-e763-41b7-8677-1dfc693a2ae5" x="47.08" y="0" width="4.74" height="29.27"/><path id="uuid-62aea478-69d5-4f74-9a3c-dd3362b91386" d="M55.42,25.68l11.2-13.1h-10.77v-3.67h15.83v3.55l-11.12,13.14h11.51v3.67h-16.65v-3.59Z"/><rect id="uuid-4efa6a24-8e2e-44dc-8368-4dba7fa2576b" x="75.27" y="0" width="4.74" height="29.27"/><g id="uuid-4d41cbaa-23a4-48c9-b40c-606b3877f4c2"><g id="uuid-929f4e34-25a8-48d8-ab02-649bd1dd1363"><path id="uuid-5ce7b567-e062-4a80-be67-499eb736e14f" d="M9.15,14.35c1.5,.1,3.01-.15,4.4-.73,1.59-.94,2.52-2.71,2.38-4.56,.09-1.8-.89-3.49-2.5-4.31-1.35-.5-2.8-.7-4.23-.6H5.08V14.35h4.07ZM0,0H9.39C12.21,0,14.91,.2,17.05,1.37c2.74,1.49,4.15,4.4,4.15,7.94,.15,3.14-1.43,6.11-4.11,7.74-1.69,1.01-4.11,1.45-7.82,1.45H5.07v10.76H0V0Z"/></g></g><g id="uuid-f340ed25-56b7-437d-9362-552084dabf00"><rect id="uuid-69ae2bea-2acd-46e3-9325-3a5696f0ec93" x="25.89" y="0" width="4.74" height="4.99"/><rect id="uuid-70a5681e-d49a-4755-b6c4-9c866c8c78f0" x="34.67" y="0" width="4.74" height="4.99"/></g><path id="uuid-e90d11e0-bb8a-4fb7-af27-78ac33ac2516" d="M32.65,8.35c-5.98,0-10.82,4.85-10.82,10.82,0,5.98,4.84,10.83,10.82,10.83h0c5.98,0,10.82-4.85,10.82-10.82,0-5.98-4.84-10.83-10.82-10.83h0Zm0,17.42c-3.64,0-6.59-2.95-6.59-6.59h0c0-3.64,2.95-6.59,6.59-6.59h0c3.64,0,6.59,2.95,6.59,6.59h0c0,3.64-2.95,6.59-6.59,6.59h0Z"/></g></svg>